<?xml version="1.0" standalone="no"?>
<!DOCTYPE svg PUBLIC "-//W3C//DTD SVG 20010904//EN"
 "http://www.w3.org/TR/2001/REC-SVG-20010904/DTD/svg10.dtd">
<svg version="1.0" xmlns="http://www.w3.org/2000/svg"
 width="1024.000000pt" height="1024.000000pt" viewBox="0 0 1024.000000 1024.000000"
 preserveAspectRatio="xMidYMid meet">
<metadata>
Created by potrace 1.11, written by Peter Selinger 2001-2013
</metadata>
<g transform="translate(0.000000,1024.000000) scale(0.100000,-0.100000)"
fill="#000000" stroke="none">
<path d="M4730 10225 c-558 -50 -1009 -155 -1500 -348 -179 -71 -575 -266
-735 -362 -694 -419 -1272 -984 -1702 -1660 -142 -224 -334 -601 -428 -840
-609 -1546 -447 -3250 442 -4650 346 -546 828 -1050 1368 -1432 229 -162 434
-281 735 -426 562 -273 1147 -433 1785 -488 180 -16 670 -16 850 0 510 44 993
158 1470 346 141 55 463 210 620 297 708 395 1364 1015 1795 1698 424 672 673
1364 770 2137 105 847 -6 1708 -325 2518 -55 140 -209 462 -297 620 -375 673
-952 1297 -1603 1733 -197 132 -327 207 -575 330 -625 312 -1211 472 -1953
532 -170 13 -536 11 -717 -5z m1429 -2332 c0 -5 -384 -1257 -852 -2783 l-852
-2775 -193 -3 c-181 -2 -193 -1 -188 15 3 10 386 1258 851 2773 465 1515 847
2761 850 2768 3 9 52 12 195 12 104 0 190 -3 189 -7z m-2369 -1356 l0 -224
-787 -291 c-1368 -507 -1418 -526 -1418 -542 0 -16 50 -35 1418 -542 l787
-291 0 -224 c0 -172 -3 -223 -12 -223 -7 0 -625 240 -1373 533 l-1360 533 0
213 0 212 1360 534 c748 293 1366 534 1373 534 9 1 12 -50 12 -222z m4050
-311 l1365 -535 0 -212 0 -213 -1360 -533 c-748 -293 -1366 -533 -1372 -533
-10 0 -13 51 -13 223 l0 224 828 306 c1369 508 1377 511 1377 527 0 16 -8 19
-1377 527 l-828 306 0 224 c0 123 3 223 8 223 4 0 622 -240 1372 -534z"/>
</g>
</svg>
